<?xml version="1.0" encoding="UTF-8" standalone="no"?>
<svg
   xmlns="http://www.w3.org/2000/svg"
   width="300"
   height="260"
   viewBox="0 0 918 793">
    <path
       d="M 813.13,8.89 C 827.61,8.09 842.09,6.47 856.61,7.31 C 842.67,15.26 829.28,24.14 815.78,32.8 C 773.03,60.73 731.86,91.09 692.58,123.72 C 647.06,160.86 604.44,201.61 565.91,245.98 C 517.99,299.59 474.93,357.74 439.69,420.47 C 436.25,427.39 432.15,433.96 428.89,440.97 C 424.09,449.17 420.79,458.12 416.45,466.55 C 414.27,471.79 411.9,476.97 410.25,482.41 C 410.18,471.19 412.14,460.13 412.82,448.97 C 414.85,435.25 415.71,421.34 418.86,407.8 C 420.89,394.53 423.46,381.35 426.27,368.23 C 428.92,359.61 430.35,350.66 432.89,342.01 C 435.79,333.3 437.91,324.36 440.72,315.63 C 447.88,294.16 455.91,272.96 465.59,252.49 C 469.14,245.97 471.73,238.94 475.6,232.58 C 507.79,170.83 555.24,116.76 613.68,78.64 C 634.13,64.91 656.14,53.71 678.57,43.6 C 691.66,38.43 704.64,32.96 718.21,29.1 C 728.17,25.16 738.76,23.27 748.94,20.03 C 761.65,17.06 774.48,14.53 787.4,12.61 C 795.81,10.34 804.58,10.38 813.13,8.89 z"
       style="fill:#96c61c" />
    <path
       d="M 142.3,66.75 C 162.24,66.98 182.39,67.58 201.89,72.1 C 218.5,74.78 234.54,80.06 250.29,85.89 C 258.17,89.63 266.5,92.49 274.01,97 C 289.88,105.5 304.98,115.55 318.57,127.41 C 358.39,161.21 386.82,206.7 405.96,254.92 C 410.08,265.07 413.79,275.39 416.78,285.94 C 420.08,294.88 422.15,304.2 424.38,313.44 C 426.88,325.1 430.37,336.66 430.76,348.66 C 429.33,345.7 427.53,342.99 425.54,340.4 C 411.05,318.03 394.14,297.36 376.86,277.1 C 365.88,264.79 354.85,252.49 343.15,240.86 C 336.8,233.56 329.73,226.94 323.32,219.69 C 289.93,185.4 254.08,153.54 216.41,124.02 C 192.09,104.43 167.24,85.53 142.3,66.75 z"
       style="fill:#96c61c" />
    <path
       d="M 216.41,124.02 C 254.08,153.54 289.93,185.4 323.32,219.69 C 329.73,226.94 336.8,233.56 343.15,240.86 C 343.11,321.57 343.15,402.28 343.13,483 C 300.87,483.04 258.62,483.09 216.36,482.97 C 216.43,363.32 216.32,243.67 216.41,124.02 z"
       style="fill:#014fa1" />
    <path
       d="M 565.91,245.98 C 604.44,201.61 647.06,160.86 692.58,123.72 C 692.68,243.47 692.59,363.23 692.62,482.99 C 650.41,483.07 608.19,483.05 565.97,483 C 565.92,403.99 566.05,324.99 565.91,245.98 z"
       style="fill:#014fa1" />
    <path
       d="M 41.35,636.44 C 57.5,624.07 81.5,623.35 98.51,634.42 C 101.59,636.26 103.61,639.31 106,641.9 C 111.8,648.16 113.85,656.68 116.44,664.56 C 121.89,652.84 130.13,642.33 140.59,634.73 C 151.86,627.41 165.98,624.95 179.09,627.83 C 184.91,628.67 190.24,631.57 195.03,634.87 C 204.91,643.38 210.25,656.16 211.68,668.93 C 212.21,674.62 213.06,680.31 213.06,686.04 C 213.04,717.97 213.07,749.9 213.05,781.83 C 208.53,781.84 204.02,781.83 199.51,781.85 C 199.52,753.24 199.52,724.62 199.52,696.01 C 199.65,686.64 199.22,677.22 197.82,667.95 C 195.62,661.13 194.07,653.58 188.71,648.41 C 184.03,642.41 176.16,640.38 168.92,639.77 C 158.65,639.31 147.88,642.18 140,649 C 127.59,659.32 119.1,674.67 118.25,690.92 C 117.37,699.25 117.79,707.63 117.7,716 C 117.71,737.95 117.68,759.9 117.71,781.85 C 113.19,781.84 108.67,781.84 104.15,781.85 C 104.17,755.24 104.16,728.64 104.16,702.03 C 104.08,692.68 104.62,683.27 103.03,674.01 C 102.33,664.64 99.26,655.16 92.98,648.04 C 87.98,642.35 80.25,640.19 72.94,639.75 C 64.9,639.4 56.76,641.08 49.45,644.45 C 34.56,652.65 25.48,668.73 22.76,685.16 C 21.31,698.7 21.76,712.34 21.7,725.94 C 21.7,744.57 21.68,763.21 21.71,781.84 C 17.19,781.84 12.67,781.83 8.15,781.85 C 8.17,731.65 8.15,681.46 8.16,631.26 C 12.67,631.26 17.19,631.26 21.7,631.26 C 21.7,641.65 21.67,652.05 21.72,662.44 C 24.34,657.3 27.47,652.43 30.78,647.71 C 33.66,643.39 37.79,640.16 41.35,636.44 z"
       style="fill:#014fa1" />
    <path
       d="M 295.64,632.75 C 309.61,626.13 325.75,625.47 340.8,628.14 C 346.4,628.74 351.6,631.08 356.68,633.38 C 361.75,635.62 365.13,640.12 368.87,644.01 C 373.1,649.51 375.14,656.29 376.85,662.92 C 378.27,667.15 378.35,671.65 378.36,676.07 C 378.36,701.37 378.36,726.68 378.36,751.99 C 378.49,757.8 378.46,763.86 380.82,769.29 C 383.91,773.71 389.94,773.35 394.73,773.58 C 394.73,777.49 394.74,781.4 394.73,785.31 C 388.97,787.29 382.68,787.02 376.98,784.95 C 374.48,783.57 372.38,781.58 369.96,780.07 C 365.59,774.63 364.17,767.56 363.79,760.75 C 359.61,764.62 356.11,769.28 350.99,772 C 344.13,778.21 335.34,781.37 326.92,784.82 C 316.24,787.36 304.99,787.21 294.32,784.75 C 288,781.9 281.14,779.7 276.12,774.71 C 273.91,771.95 271.26,769.57 269.22,766.68 C 263.21,755.63 260.47,742.4 263.43,730.01 C 264.57,724.79 266.11,719.56 268.99,715.02 C 271.47,711.52 274.44,708.42 277.15,705.11 C 278.37,703.53 280.34,702.94 282.04,702.06 C 286.14,700.27 289.5,696.92 294,696.07 C 303.32,693.9 312.28,690.38 321.7,688.66 C 329.18,686.36 337.08,685.54 344.35,682.53 C 351,679.97 358.19,678.16 364.01,673.93 C 365.02,665.45 362.57,656.54 356.67,650.26 C 350.3,642.94 340.12,641.02 330.95,639.92 C 318.5,639.02 305.13,641.07 294.9,648.66 C 286.74,654.01 280.72,662.07 276.02,670.49 C 273.02,667.83 269.98,665.19 266.5,663.19 C 271.05,656.01 275.14,648.28 281.65,642.64 C 285.92,638.84 290.16,634.73 295.64,632.75 M 354.36,693.22 C 348.42,695.75 341.84,696.09 335.89,698.58 C 325.34,703.01 313.37,701.53 302.79,705.87 C 297.07,708.28 290.72,709.69 285.95,713.9 C 280.91,718.24 277.14,724.24 276.2,730.9 C 275.2,738.87 275.05,747.31 278.01,754.91 C 281.12,760.39 284.55,766.37 290.46,769.21 C 303.65,775.24 318.98,774.29 332.6,770.28 C 340.8,768.49 346.85,762.24 352.88,756.85 C 357.5,753.07 359.34,747.2 361.89,742.04 C 363.19,737.17 363.85,732.1 363.77,727.06 C 363.72,714.24 363.77,701.43 363.74,688.62 C 360.54,690.02 357.59,691.92 354.36,693.22 z"
       style="fill:#014fa1" />
    <path
       d="M 476.66,637.62 C 483.21,630.27 493.21,626.28 503.02,626.74 C 507.11,626.81 511.05,627.98 515.03,628.83 C 515.03,634.18 515.03,639.53 515.04,644.89 C 504.64,641.29 492.26,641.42 482.98,647.86 C 475.03,653.01 469.63,661.05 465.06,669.15 C 460.37,679.54 457.06,690.57 455.64,701.89 C 455.12,709.58 454.1,717.25 454.24,724.97 C 454.27,743.92 454.24,762.88 454.26,781.84 C 449.82,781.84 445.39,781.84 440.96,781.84 C 440.94,731.65 440.94,681.46 440.96,631.27 C 445.38,631.26 449.81,631.26 454.25,631.26 C 454.28,644.13 454.21,657 454.29,669.87 C 454.87,669.8 456.05,669.66 456.64,669.59 C 461.79,658.14 467.41,646.4 476.66,637.62 z"
       style="fill:#014fa1" />
    <path
       d="M 673.86,627.37 C 683.51,625.9 693.42,626.84 702.86,629.22 C 708.79,631.67 715.16,633.67 720.01,638.08 C 724.23,641.78 728.69,645.35 731.9,650.03 C 736.02,656.02 739.93,662.22 742.56,669.03 C 738.35,670.96 734.26,673.12 730.13,675.21 C 724.76,662.54 716.19,650.55 703.81,644.01 C 687.36,636.75 666.3,638.44 652.58,650.61 C 642.85,659.69 636.81,672.16 634.31,685.14 C 631.1,703.64 631.42,723.18 637.88,740.97 C 640.25,745.33 641.97,750.09 644.92,754.12 C 648.56,758.11 651.99,762.33 656.32,765.63 C 659.83,769.09 664.75,770.21 669.29,771.69 C 680.08,774.42 691.69,774.08 702.17,770.19 C 707.25,768.91 710.88,764.96 714.67,761.62 C 718.19,757.72 722.3,754.2 724.6,749.37 C 726.3,745.8 728.61,742.55 730.15,738.91 C 734.19,740.84 738.12,743.07 742.52,744.14 C 740.98,747.94 739.8,751.98 737.34,755.33 C 733.28,760.61 730.68,767.17 725.03,771.07 C 720.15,776.25 713.92,780.01 707.16,782.18 C 700.07,786.04 691.83,786.35 683.96,786.73 C 675.75,786.43 667.2,786.08 659.77,782.2 C 650.95,779.82 644.09,773.51 637.69,767.34 C 635.34,764.28 633.34,760.98 631.14,757.82 C 625.13,750.33 623.13,740.66 620.26,731.72 C 618,718.67 616.8,705.23 618.89,692.07 C 619.41,688.57 619.38,684.98 620.39,681.58 C 622.76,674.63 624.27,667.31 628.01,660.9 C 632.68,653.16 637.76,645.42 645.01,639.82 C 652.79,632.46 663.4,628.75 673.86,627.37 z"
       style="fill:#014fa1" />
    <path
       d="M 839.56,626.88 C 855.14,625.77 872.06,629.14 883.76,640.07 C 891.36,646.39 897,654.73 901.75,663.31 C 905.01,669.84 906.6,676.99 908.72,683.93 C 911.26,698.83 911.31,714.17 908.77,729.08 C 905.94,739.33 903.42,750.15 896.66,758.64 C 891.19,767.61 883.43,775.27 874.1,780.16 C 870.24,781.56 866.47,783.17 862.68,784.73 C 851.65,787.35 840.08,787.19 828.98,785.03 C 825.41,784.17 822.25,782.18 818.73,781.16 C 815.31,780.24 812.56,777.91 809.43,776.38 C 806.69,774.55 804.7,771.81 801.96,769.97 C 798.34,767.54 796.5,763.45 793.79,760.18 C 781.95,743.75 778.52,722.86 779.29,702.99 C 779.22,679.93 787.47,655.74 805.58,640.67 C 814.67,632 827.26,627.98 839.56,626.88 M 835.58,640.7 C 821.16,642.71 809.38,653.3 802.73,665.82 C 796.62,675.79 795.06,687.58 793.49,698.95 C 792.45,710.78 794.05,722.68 796.96,734.15 C 798.6,740.99 802.3,747.03 805.84,753.02 C 810.43,758.74 815.66,764.1 821.76,768.22 C 836.25,775.12 853.88,775.28 868.41,768.35 C 871.68,766.41 874.42,763.69 877.21,761.13 C 880.43,757.32 884.41,754.03 886.51,749.41 C 890.05,742.09 893.38,734.53 894.62,726.43 C 896.42,716.38 896.11,706.06 895.66,695.9 C 895.19,685.28 891.74,675.11 887.24,665.58 C 882.38,656.88 875.57,648.95 866.57,644.4 C 857.01,639.87 845.93,638.56 835.58,640.7 z"
       style="fill:#014fa1" />
    <path
       d="M 553.16,631.26 C 557.81,631.26 562.47,631.26 567.13,631.27 C 567.13,681.46 567.13,731.65 567.13,781.84 C 562.47,781.84 557.81,781.83 553.15,781.84 C 553.17,731.65 553.15,681.46 553.16,631.26 z"
       style="fill:#014fa1" />
</svg>